<?xml version="1.0" encoding="utf-8"?>
<!-- Generator: Adobe Illustrator 23.0.6, SVG Export Plug-In . SVG Version: 6.00 Build 0)  -->
<svg version="1.1" id="Layer_1" xmlns="http://www.w3.org/2000/svg" xmlns:xlink="http://www.w3.org/1999/xlink" x="0px" y="0px"
	 viewBox="0 0 1572.1 272.9" style="enable-background:new 0 0 1572.1 272.9;" xml:space="preserve">
<style type="text/css">
	.st0{fill:#FFFFFF;}
</style>
<g>
	<path class="st0" d="M258.7,16.7C250.8,3,232-2.5,206,1.1c-23.3,3.3-50.8,13.5-77.2,28.7c-25.6,14.8-49.6,34.3-64.5,53.9
		c-26.8-5-49.5-1.8-59,14.5c-17.4,30.1,26.4,77.1,76.4,106c26.4,15.3,53.9,25.5,77.2,28.7c1.1,0.2,2.2,0.3,3.3,0.4
		c9,23.5,22.6,39.5,40.4,39.5c34.8,0,53.5-61.4,53.5-119.1c0-28.4-4.5-57.6-13.3-80.1C259.9,53.4,267.9,32.7,258.7,16.7z
		 M72.3,103.9c15.7,4.3,34.1,11.7,53.9,23.1c0.4,0.2,0.8,0.5,1.3,0.7c-31.6,10.1-54.3,8-59.5-0.9C65.2,122,66.6,113.9,72.3,103.9z
		 M90.7,188.6c-54.3-31.3-77.2-68.5-69.8-81.3c2.8-4.8,10.7-7.7,22.3-7.7c3.6,0,7.1,0.3,10.7,0.7c-6.2,12.9-7.4,25.2-1.5,35.5
		c6.8,11.7,20.3,16.7,37.4,16.7c13.4,0,28.9-3.1,44.8-8.3c3.9-1.3,7.9-2.7,11.8-4.3c0.9,0.6,1.9,1.4,2.9,2.1
		c-0.2,3.9-0.2,7.9-0.2,11.8c0,20.7,2.4,41.8,7.1,60.4C136.2,210.6,113.2,201.6,90.7,188.6z M175.2,216c-4.7-15.8-7.9-35.9-8.1-59.6
		c24.5,22.3,34.1,43,28.9,52C193.2,213.2,185.7,215.8,175.2,216z M202.6,254.9c-6.5,0-14.2-7.5-20.8-21.2c14.2-1.5,24.4-7,29.8-16.2
		c13.4-23.3-9.6-56.6-43.8-83.8c0.1-1.1,0.2-2.3,0.3-3.4c4.8-2.4,9.5-4.9,14.2-7.6c17-9.8,33.3-21.7,46.7-34.4
		c5.4,16.8,9.1,39,9.1,65.5C238.1,216.4,217.4,254.9,202.6,254.9z M171.1,108.3c6.8-35.3,20.7-55.6,31.4-55.6
		c6,0,12.9,6.2,19.1,17.8C210,82.3,193.9,95.1,173.3,107C172.5,107.4,171.8,107.8,171.1,108.3z M234,55.8
		c-8.3-13-18.8-21.1-31.5-21.1c-27.7,0-45.2,38.8-51.2,83.7c-0.9,0.5-1.9,0.9-2.8,1.3c-4.4-2.9-8.8-5.6-13.3-8.2
		c-16.6-9.6-34.5-17.6-51.8-22.9c11.8-13.7,29.9-29,54.3-43.1c24.4-14.1,49.6-23.6,70.7-26.5c4.2-0.6,8.4-0.9,12.6-0.9
		c11.2,0,19.2,2.7,22.1,7.7c0.9,1.6,1.4,3.5,1.4,5.7C244.5,37.5,241,46.1,234,55.8z"/>
	<polygon class="st0" points="774.9,153.3 717.6,80 686.5,80 686.5,199.8 717.6,199.8 717.6,126.5 774.9,199.8 806.1,199.8 
		806.1,80 774.9,80 	"/>
	<polygon class="st0" points="923.6,106.4 949,106.4 949,199.8 980.1,199.8 980.1,106.4 1005.9,106.4 1005.9,80 923.6,80 	"/>
	<polygon class="st0" points="1142.3,157.4 1118.6,80 1093.9,80 1068.5,157.4 1047.7,80 1015.2,80 1050.9,199.8 1082.5,199.8 
		1105.5,130.4 1127.4,199.8 1159.1,199.8 1197.4,80 1165,80 	"/>
	<path class="st0" d="M1278.9,76.4c-20,0-36.4,6.7-49,20c-11.5,12.2-17.3,26.4-17.3,42.8c0,18.6,6.2,34.1,18.7,46.4
		c12.5,12.3,28.1,18.5,47,18.5c20.4,0,37-6.7,49.7-20c11.5-12.2,17.2-26.8,17.2-43.9c0-17-5.7-31.6-17.2-43.8
		C1315.3,83.1,1298.9,76.4,1278.9,76.4z M1302.8,164.1c-6.6,6.6-14.5,9.9-23.8,9.9c-9.4,0-17.4-3.3-24-9.9
		c-6.5-6.6-9.8-14.6-9.8-24.2c0-9.1,3.3-16.8,9.9-23.4c6.6-6.6,14.5-9.9,23.7-9.9c9.4,0,17.3,3.3,23.9,9.9
		c6.6,6.5,9.9,14.4,9.9,23.7C1312.6,149.5,1309.3,157.5,1302.8,164.1z"/>
	<polygon class="st0" points="1520.1,136.7 1567.6,80 1529.1,80 1491.1,129.4 1491.1,80 1460,80 1460,199.8 1491.1,199.8 
		1491.1,147.9 1531.6,199.8 1572.1,199.8 	"/>
	<path class="st0" d="M1420.8,139.2c4.4-5.7,6.6-13.1,6.6-22.1c0-9.2-2.8-17.3-8.3-24.2c-6.7-8.6-17.2-12.9-31.3-12.9h-17.4v24h5.9
		c6.1,0,10.8,1.3,14.1,3.9c3.3,2.6,5,6.2,5,10.9c0,4.7-1.7,8.4-5,10.9c-3.3,2.6-8,3.9-14.1,3.9h-5.9v20.2l29.7,46h38.8l-37.6-49.1
		C1409.9,148.7,1416.4,144.9,1420.8,139.2z"/>
	<polygon class="st0" points="870.3,152.7 905.3,152.7 905.3,126.3 870.3,126.3 839.2,126.3 839.2,199.8 907.4,199.8 907.4,173.4 
		870.3,173.4 	"/>
	<polygon class="st0" points="839.2,106.4 870.3,106.4 907.4,106.4 907.4,80 839.2,80 	"/>
	<polygon class="st0" points="348.7,199.8 356.6,199.8 356.6,137.8 396.1,137.8 396.1,130.7 356.6,130.7 356.6,87.2 397.2,87.2 
		397.2,80 348.7,80 	"/>
	<path class="st0" d="M411.5,140.2c0,33.4,26.6,61.6,62.5,61.6c12.9,0,27.7-4.1,39.9-14.9v-10.4c-12.2,13.3-28.2,18.1-40.2,18.1
		c-24.3,0-53.9-18.5-53.9-54.1c0-30.4,23-55,53.7-55c15.5,0,30.2,6.8,40.4,18.9V94c-3.6-3.4-17.4-15.6-40.2-15.6
		C439.2,78.4,411.5,105.7,411.5,140.2z"/>
	<polygon class="st0" points="620.3,130.8 547.7,130.8 547.7,80 539.8,80 539.8,199.8 547.7,199.8 547.7,138 620.3,138 620.3,199.8 
		628.2,199.8 628.2,80 620.3,80 	"/>
</g>
</svg>
