<svg xmlns="http://www.w3.org/2000/svg" width="489.538" height="124.014" viewBox="0 0 489.538 124.014">
  <path id="Path_1086" data-name="Path 1086" d="M71.112,106.531c-.479-.053-.958-.119-1.447-.185C59.342,104.9,47.2,100.382,35.511,93.633,13.382,80.854-5.972,60.093,1.718,46.769c4.172-7.226,14.226-8.661,26.076-6.416,6.615-8.661,17.215-17.294,28.545-23.83C68.029,9.775,80.158,5.259,90.491,3.811c11.544-1.62,19.819.823,23.313,6.881,4.09,7.079.545,16.259-6.988,25.225,3.866,9.922,5.871,22.86,5.871,35.413,0,25.544-8.3,52.682-23.684,52.682C81.127,124.013,75.11,116.906,71.112,106.531Zm8.913-48.975c-2.046,1.182-4.145,2.311-6.27,3.361-.053.491-.093,1-.132,1.5,15.116,12.035,25.3,26.753,19.367,37.048-2.365,4.092-6.921,6.536-13.177,7.187,2.9,6.084,6.3,9.392,9.192,9.392,6.562,0,15.715-17.016,15.715-44.712,0-11.729-1.634-21.546-4.038-28.971A112.745,112.745,0,0,1,80.024,57.556Zm-3.135,41.3c4.663-.079,7.969-1.248,9.192-3.373C88.367,91.522,84.142,82.369,73.3,72.5A96.063,96.063,0,0,0,76.89,98.853ZM8.626,50.755C5.345,56.439,15.494,72.872,39.5,86.727c9.95,5.751,20.138,9.736,28.971,11.344A111.313,111.313,0,0,1,65.32,71.33c0-1.727.04-3.468.105-5.206-.412-.319-.85-.626-1.275-.917-1.74.677-3.493,1.315-5.221,1.886A65.382,65.382,0,0,1,39.1,70.772c-7.546,0-13.563-2.191-16.552-7.385-2.631-4.569-2.1-10,.651-15.7a38.183,38.183,0,0,0-4.715-.319C13.342,47.367,9.848,48.615,8.626,50.755ZM29.454,59.4c2.285,3.959,12.314,4.875,26.3.411-.185-.105-.358-.212-.544-.318a101.1,101.1,0,0,0-23.83-10.2C28.869,53.69,28.232,57.29,29.454,59.4Zm62.14-47.7c-9.338,1.3-20.443,5.472-31.27,11.729-10.812,6.243-18.809,13-24.029,19.062A112.845,112.845,0,0,1,59.2,52.6c1.993,1.156,3.973,2.364,5.9,3.64.425-.185.837-.373,1.263-.571C69.026,35.8,76.769,18.635,89,18.635c5.593,0,10.242,3.586,13.908,9.364,3.069-4.289,4.6-8.061,4.6-10.785a5.017,5.017,0,0,0-.6-2.538c-1.276-2.2-4.8-3.387-9.763-3.387A40.267,40.267,0,0,0,91.594,11.7Zm-16.5,39.5c.305-.185.625-.357.943-.544A99.344,99.344,0,0,0,97.425,34.469C94.716,29.369,91.648,26.6,89,26.6,84.222,26.6,78.085,35.61,75.1,51.206Zm199.812,68a12.979,12.979,0,0,1-3.308-9.29q0-6.3,3.443-9.839a12.377,12.377,0,0,1,9.3-3.541q5.592,0,8.728,3.442t3.137,9.546q0,5.982-3.381,9.582a11.847,11.847,0,0,1-9.07,3.6A11.6,11.6,0,0,1,274.908,119.206Zm3.039-16.675a10.782,10.782,0,0,0-2.246,7.239,10.2,10.2,0,0,0,2.27,7.007,7.72,7.72,0,0,0,6.079,2.563,7.321,7.321,0,0,0,5.969-2.515q2.088-2.515,2.088-7.153,0-4.689-2.088-7.227a7.286,7.286,0,0,0-5.969-2.539A7.617,7.617,0,0,0,277.947,102.531ZM195.4,119.3q-3.028-3.406-3.028-9.582a13.669,13.669,0,0,1,3.308-9.509,10.606,10.606,0,0,1,8.215-3.675,9.4,9.4,0,0,1,7.592,3.174q2.687,3.174,2.686,8.814v2.1H196.527a9.351,9.351,0,0,0,2.245,6.445,7.744,7.744,0,0,0,5.909,2.271,12.28,12.28,0,0,0,7.763-2.784v3.76a14.51,14.51,0,0,1-8.716,2.392A10.565,10.565,0,0,1,195.4,119.3Zm3.613-17.371a9.194,9.194,0,0,0-2.442,5.3h13.5a8.15,8.15,0,0,0-1.672-5.4,5.7,5.7,0,0,0-4.577-1.929A6.466,6.466,0,0,0,199.017,101.932Zm22.509,13.4v-14.8h-4.3V97.123h4.3v-6.1l4-1.294v7.4h6.3v3.418h-6.3v14.087a5.84,5.84,0,0,0,.855,3.589,3.408,3.408,0,0,0,2.831,1.075,4.209,4.209,0,0,0,2.613-.831v3.418a7.717,7.717,0,0,1-3.736.781Q221.527,122.66,221.526,115.336Zm113.6,6.787L324.09,110.111h-.1v12.011h-4V85.111h4v23.462h.1l10.5-11.451h5.25l-11.6,12.061,12.5,12.939Zm-32.52,0v-25h4v5.152h.1a8.73,8.73,0,0,1,2.612-4.114,5.958,5.958,0,0,1,3.931-1.477,6.539,6.539,0,0,1,2.392.342v4.151a4.9,4.9,0,0,0-3.028-.806,5.108,5.108,0,0,0-4.284,2.417,11.174,11.174,0,0,0-1.722,6.592v12.744Zm-45.58,0-5.152-17.9a11.628,11.628,0,0,1-.391-2.319h-.1a10.96,10.96,0,0,1-.512,2.271l-5.591,17.944h-4l-7.568-25h4.2l5.176,18.8a11.292,11.292,0,0,1,.342,2.246h.2a10.5,10.5,0,0,1,.439-2.3l5.762-18.751h3.662l5.176,18.848a13.4,13.4,0,0,1,.366,2.246h.2a10.4,10.4,0,0,1,.415-2.246l5.079-18.848h3.955l-7.5,25Zm-74.488,0V107.865q0-7.958-5.81-7.959a6.3,6.3,0,0,0-4.968,2.258,8.37,8.37,0,0,0-1.966,5.7v14.258h-4v-25h4v4.151h.1a9.024,9.024,0,0,1,8.2-4.737,7.651,7.651,0,0,1,6.275,2.65q2.172,2.649,2.173,7.654v15.283Zm169.858-.674a5.552,5.552,0,1,1,2.125.424A5.557,5.557,0,0,1,352.4,121.449Zm58.664-42.955V30.551H427.55V78.493Zm-126.186-.015c-14.031-.212-26.351-10.12-26.351-24.1,0-14.405,12.695-23.824,26.824-23.824A32.907,32.907,0,0,1,297.86,32.9V46.684a33.153,33.153,0,0,0-12.515-2.542c-6.34,0-9.7,3.439-9.779,10.233,0,6.536,4.433,10.512,10.414,10.512A31.557,31.557,0,0,0,293,64.17a36.343,36.343,0,0,0,4.856-1.451V76.587a39.305,39.305,0,0,1-12.515,1.906C285.181,78.493,285.035,78.493,284.872,78.478Zm52.772.013V52.57c0-6.254-1.45-8.429-6.888-8.429-4.714,0-7.886,3.443-8.793,8.883V78.491H305.47V0h16.494V37.07a18.143,18.143,0,0,1,13.867-6.526c12.87,0,18.309,7.977,18.309,22.026V78.491Zm-172.025,0v-34.8H158.1V30.544h7.522V21.028C165.62,7.069,172.238,0,185.379,0a28.89,28.89,0,0,1,9.879,1.631V14.864a19.729,19.729,0,0,0-5.982-1.269c-5.165,0-7.16,1.9-7.16,7.25v9.7h12.506V43.686H182.117v34.8Zm196.133-5.076L366.739,61.9c4.258,2.448,10.421,4.261,14.138,4.261,4.531,0,5.8-.635,5.8-1.9,0-1.993-2.355-2.991-9.967-5.71-6.8-2.447-12.872-5.891-12.872-13.685,0-10.878,9.789-14.322,21.027-14.322,7.8,0,13.233,1.541,18.491,4.714l-5.348,10.786a23.424,23.424,0,0,0-12.055-3.263c-4.352,0-5.349.634-5.349,1.993,0,1.723,1.451,2.358,8.7,4.8,8.339,2.811,14.14,6.073,14.14,14.322,0,11.51-9.156,14.592-20.938,14.592C373.716,78.489,367.553,76.675,361.753,73.415ZM202.236,56.738v-26.2h16.5V55.922c0,6.345,2.811,8.971,7.887,8.971s7.794-2.626,7.794-8.971V30.542h16.5v26.2c0,13.956-10.333,21.751-24.29,21.751S202.236,70.694,202.236,56.738ZM473.042,78.485v-6.7a17.991,17.991,0,0,1-14.221,6.7c-13.055,0-23.654-11.69-23.654-24.2A23.505,23.505,0,0,1,458.821,30.56a18,18,0,0,1,14.221,6.791V30.56h16.5V78.485ZM452.211,54.523a10.78,10.78,0,1,0,10.779-10.8A10.778,10.778,0,0,0,452.211,54.523Zm-41.152-38.3a8.246,8.246,0,1,1,8.246,8.246A8.245,8.245,0,0,1,411.059,16.218Z" transform="translate(-0.001)" fill="#fff"/>
</svg>
