<?xml version="1.0" encoding="utf-8"?>
<!-- Generator: Adobe Illustrator 22.1.0, SVG Export Plug-In . SVG Version: 6.00 Build 0)  -->
<svg version="1.1" id="Layer_1" xmlns="http://www.w3.org/2000/svg" xmlns:xlink="http://www.w3.org/1999/xlink" x="0px" y="0px"
	 viewBox="0 0 1000 1000" style="enable-background:new 0 0 1000 1000;" xml:space="preserve">
<style type="text/css">
	.st0{fill:#FFB00E;}
</style>
<g>
	<path class="st0" d="M261.8,292.4c-2.4,10.3-9.2,18.5-18.1,23.2c4.9,79.1,20.3,156.8,46.1,231.8c49.4-99.9,119.6-188.9,205.5-260.6
		C417.2,278.2,338.9,280.1,261.8,292.4z"/>
	<path class="st0" d="M213.1,317.1c-6.2-2.6-11.5-6.8-15.3-12c-62.5,14.7-123.4,36.3-181.4,64.3c67.9,77.2,151.4,140.5,243.5,185
		C233.8,477.6,218.1,398.1,213.1,317.1z"/>
	<path class="st0" d="M667.2,683.4c-53.9,62.4-115.8,116.8-184.4,162.8c0.3,3.1,0.4,6.4-0.1,9.6c-0.4,2.8-1.2,5.7-2.2,8.3
		c44.2,47.6,93.5,89.9,146.9,126.5c15.1-44.3,26.4-90.3,33.4-137C669,797,671.2,740,667.2,683.4z"/>
	<path class="st0" d="M477.1,652.8c-55.6-8.3-110.1-22.3-162.4-41.8c31.8,73.6,73.3,142.3,123.8,204.8c4.5-1.2,9.2-1.4,14-0.6
		c5.1,0.8,9.9,2.6,14,5.2c67.4-45.1,127.9-98.8,180.4-160.2C590.4,663.5,533.5,661.2,477.1,652.8z"/>
	<path class="st0" d="M791.3,372.4c-71-34.9-146.2-60-224.3-74.9c61.9,93.7,103.5,199.6,122,309.8c47-64.1,84.9-133.9,112.8-208.3
		C794.9,392.1,790.8,382.4,791.3,372.4z"/>
	<path class="st0" d="M822.4,338c11.8-39.9,21-80.9,27.1-122.3c3.4-23,6-46.3,7.6-69.7c-101.9,20.4-199.4,62-285.2,121.2
		c81.4,15.5,159.6,41.6,233.5,77.9C810.2,341.3,816,338.8,822.4,338z"/>
</g>
</svg>
