<?xml version="1.0" standalone="no"?>
<!DOCTYPE svg PUBLIC "-//W3C//DTD SVG 20010904//EN"
 "http://www.w3.org/TR/2001/REC-SVG-20010904/DTD/svg10.dtd">
<svg version="1.0" xmlns="http://www.w3.org/2000/svg"
 width="700.000000pt" height="700.000000pt" viewBox="0 0 700.000000 700.000000"
 preserveAspectRatio="xMidYMid meet">
<metadata>
Created by potrace 1.11, written by Peter Selinger 2001-2013
</metadata>
<g transform="translate(0.000000,700.000000) scale(0.100000,-0.100000)"
fill="#000000" stroke="none">
<path d="M5608 6995 c-2 -1 -41 -6 -88 -9 -47 -4 -94 -9 -105 -11 -11 -3 -36
-7 -55 -10 -19 -2 -62 -9 -95 -15 -33 -6 -69 -13 -80 -14 -201 -34 -615 -162
-908 -280 -387 -157 -816 -382 -1172 -614 -115 -75 -334 -226 -375 -259 -8 -7
-55 -44 -105 -83 -115 -90 -153 -121 -285 -235 -141 -122 -475 -473 -545 -573
-23 -32 -35 -41 -51 -37 -12 2 -39 7 -60 10 -21 3 -48 8 -60 10 -11 2 -45 7
-75 10 -30 4 -70 9 -89 11 -90 13 -400 12 -494 -2 -165 -24 -302 -64 -404
-120 -100 -55 -120 -70 -203 -154 -134 -136 -200 -300 -205 -505 -5 -208 58
-418 200 -669 154 -272 351 -508 706 -847 188 -180 557 -463 845 -648 72 -46
146 -94 166 -107 19 -13 39 -24 43 -24 4 0 22 -11 40 -25 18 -14 36 -25 40
-25 3 0 23 -10 44 -23 138 -87 550 -290 773 -382 184 -76 490 -184 629 -222
210 -57 285 -73 493 -108 76 -12 139 -24 141 -26 2 -2 22 -49 45 -104 244
-577 593 -900 978 -903 98 0 194 14 256 37 360 137 644 515 852 1135 48 142
124 418 138 501 3 17 11 55 17 85 18 85 35 182 45 255 4 22 10 67 15 100 5 33
12 83 15 110 3 28 8 64 10 80 2 17 7 66 11 110 3 44 8 96 9 115 24 279 24 784
0 1065 -3 28 -7 79 -10 115 -3 36 -10 97 -15 135 -5 39 -12 90 -15 115 -42
330 -118 670 -217 968 l-60 182 28 37 c16 21 34 44 42 53 42 48 182 251 220
320 158 284 221 505 208 720 -15 259 -153 479 -378 607 -70 40 -247 106 -313
117 -16 3 -61 10 -100 17 -61 10 -438 22 -447 14z m432 -480 c317 -67 408
-228 302 -535 -30 -90 -95 -215 -169 -329 l-54 -83 -57 83 c-74 109 -227 263
-324 326 -137 90 -265 130 -422 131 -464 4 -853 -418 -1110 -1205 -39 -121
-114 -401 -131 -488 -3 -16 -12 -64 -20 -105 -8 -41 -16 -86 -19 -100 -5 -27
-22 -139 -31 -204 -3 -22 -7 -40 -8 -41 -1 0 -21 -10 -45 -22 -24 -13 -40 -18
-36 -12 3 6 -3 13 -15 16 -12 3 -21 8 -21 12 0 4 -15 15 -32 24 -18 10 -45 25
-60 35 -35 22 -168 104 -193 118 -210 118 -429 231 -610 314 -100 46 -375 160
-386 160 -5 0 -17 4 -27 10 -9 5 -80 31 -157 56 -77 25 -143 49 -147 53 -14
12 220 254 382 396 93 81 102 88 205 171 239 191 621 448 835 560 30 16 57 32
60 35 8 11 326 172 448 228 455 207 877 338 1275 397 17 2 68 7 112 10 44 4
81 8 83 9 11 10 309 -6 372 -20z m-605 -900 c102 -49 242 -202 334 -366 l31
-56 -77 -76 c-287 -279 -668 -566 -1077 -811 -70 -42 -130 -75 -133 -73 -12
12 72 352 131 528 101 304 236 565 372 717 57 64 153 134 214 156 60 22 133
15 205 -19z m570 -930 c9 -27 18 -57 20 -65 2 -8 13 -49 24 -90 20 -72 74
-318 85 -390 3 -19 8 -46 11 -60 3 -14 7 -46 10 -71 3 -25 7 -54 9 -65 2 -10
7 -48 11 -84 4 -36 8 -72 10 -81 2 -8 6 -51 10 -95 4 -43 8 -97 10 -119 22
-236 22 -752 0 -1015 -13 -159 -25 -264 -52 -465 -30 -226 -165 -761 -213
-847 -6 -10 -10 -22 -10 -28 0 -34 -152 -340 -221 -445 -71 -108 -200 -234
-275 -270 -88 -42 -168 -41 -254 5 -117 63 -253 223 -357 419 -24 46 -42 85
-40 87 2 2 26 6 54 9 115 11 269 57 378 112 275 137 427 382 426 683 -1 99 -7
143 -36 254 -71 273 -232 548 -514 876 -67 78 -309 322 -396 400 -86 77 -177
154 -199 170 -60 42 -75 62 -74 101 0 21 6 43 12 48 6 6 54 32 106 59 52 28
120 64 150 81 30 16 80 44 110 61 327 181 901 599 1135 827 28 27 51 49 51 49
1 -1 9 -23 19 -51z m-4610 -249 c22 -2 54 -4 72 -5 l31 -1 -23 -47 c-69 -144
-115 -336 -116 -481 -1 -399 271 -698 711 -781 30 -6 69 -13 85 -17 17 -3 122
-8 235 -9 207 -4 340 7 520 40 14 3 41 7 60 10 19 3 42 8 50 10 8 2 31 7 50
10 43 7 341 85 352 91 4 3 16 7 25 9 22 4 286 94 369 125 l62 23 23 -21 c12
-12 28 -22 33 -22 8 0 11 -103 11 -328 0 -293 5 -443 20 -582 9 -92 15 -152
21 -207 3 -32 7 -69 9 -83 2 -14 7 -45 10 -70 19 -147 83 -475 112 -574 5 -16
1 -18 -38 -13 -145 19 -633 166 -804 242 -16 8 -90 39 -163 69 -140 59 -394
184 -534 262 -46 26 -108 60 -138 77 -107 59 -453 279 -510 323 -8 7 -78 59
-155 117 -329 246 -612 512 -805 757 -28 36 -56 72 -63 80 -40 49 -138 207
-182 294 -136 270 -146 457 -30 569 49 48 180 110 230 108 2 0 19 4 36 9 17 5
64 12 103 16 39 3 72 7 73 8 4 3 208 -3 258 -8z m663 -127 c432 -133 760 -273
1181 -504 l144 -79 -59 -19 c-204 -67 -484 -125 -694 -145 -92 -9 -317 -9
-385 0 -167 21 -310 83 -369 161 -55 73 -65 192 -27 331 27 97 110 276 128
276 8 0 44 -9 81 -21z m2505 -1479 c446 -457 659 -852 603 -1117 -29 -137
-206 -231 -473 -249 l-81 -6 -21 68 c-21 69 -85 347 -95 414 -3 19 -8 46 -11
60 -2 13 -7 42 -10 65 -3 22 -8 51 -10 65 -10 55 -14 88 -20 145 -3 33 -7 78
-10 100 -3 22 -7 67 -10 100 -2 33 -7 92 -10 130 -10 121 -14 375 -6 375 4 0
73 -67 154 -150z"/>
</g>
</svg>
