<?xml version="1.0" encoding="utf-8"?>
<!-- Generator: Adobe Illustrator 22.1.0, SVG Export Plug-In . SVG Version: 6.00 Build 0)  -->
<svg version="1.1" xmlns="http://www.w3.org/2000/svg" xmlns:xlink="http://www.w3.org/1999/xlink" x="0px" y="0px"
	 viewBox="0 0 1000 1000" style="enable-background:new 0 0 1000 1000;" xml:space="preserve">
<style type="text/css">
	.st0{fill:#361400;}
	.st1{fill:#D1547D;}
	.st2{fill:#A0274F;}
	.st3{fill:#00B9C5;}
	.st4{fill:#00AE84;}
	.st5{fill:#FFFFFF;}
	.st6{fill:#F05623;}
	.st7{fill:#FFB00E;}
</style>
<g id="Layer_2">
	<path class="st0" d="M756.1,324.8c2.8-19.6,4.6-37.6,5.7-53.3c4.7-64.7-0.2-106.7-0.4-108.4l-2.2-18.3l-16.7,7.7
		c-85.5,39.2-158.6,84.7-218,135.6c-4.5-2.2-9.6-3.4-14.9-3.4c-14.2,0-26.4,8.6-31.7,20.9c-7,0.4-14.1,0.8-21.2,1.4
		c-9.3,0.8-18.6,1.7-27.9,2.9c-48.5,6-93.3,17-132.6,29.6c-6.3-6.5-15.1-10.5-24.8-10.5c-18.3,0-33.2,14.2-34.4,32.2
		c-18.2,7.5-34.5,15-48.7,22c-58.1,28.7-91.9,54.2-93.3,55.3l-14.7,11.2l15.1,10.5c75,52.4,149.2,91.6,221.2,117.1
		c2.9,15.5,16.2,27.4,32.4,28.1c3.4,5.5,6.9,10.9,10.5,16.2c9.4,14.1,19.4,28,30,41.5c24.8,31.7,51.1,59.5,77,83.6
		c-0.1,1-0.1,2-0.1,3c0,19,15.4,34.5,34.5,34.5c2.7,0,5.3-0.3,7.9-0.9c24.6,19.8,47.6,35.9,67.2,48.6c54.5,35.1,93.7,51,95.4,51.6
		l17.1,6.8l1.3-18.4c7-100.9,0.9-192.8-18.4-273.5c8.3-6.3,13.7-16.3,13.7-27.5c0-4.2-0.8-8.3-2.2-12c0.5-0.9,0.9-1.8,1.4-2.7
		c6.7-13.1,13-26.5,18.9-40.1c19.3-44.7,32.5-88.5,41.5-128.7c15.4-3.4,26.9-17.2,26.9-33.7C771.6,341.6,765.5,331,756.1,324.8z
		 M497.6,351.4c3.5,1.3,7.3,2.1,11.3,2.2c52.9,54,92.3,117.9,118.4,191.8c-6.8,6.3-11.1,15.3-11.1,25.4c0,1.4,0.1,2.7,0.2,4.1
		c-75.4,15.4-152.4,13.5-231.3-5.8c-0.4-7.4-3-14.1-7.3-19.6C401.8,476.1,441.7,410.2,497.6,351.4z M126.8,449
		c21-13.9,62.6-39,119.1-62.4c5.1,5.6,11.9,9.5,19.6,10.8c11.1,52.8,28.5,103.3,52,151.1C255.2,525.9,191.6,492.7,126.8,449z
		 M352.4,536.3c-0.6,0-1.2-0.1-1.8-0.1c-3.1,0-6.1,0.4-8.9,1.2c-23.1-46.3-40-94.8-50.7-145.7c8.7-6,14.5-15.9,14.9-27.2
		c38.1-12.2,80.5-22.4,126.3-28.1c15.2-1.9,30.4-3.3,45.4-4.1C419.8,392.8,377.7,461.3,352.4,536.3z M500.9,715
		c-7.9,0-15.3,2.7-21.1,7.2c-23.5-22.2-46.9-47.4-69.1-75.8c-13-16.6-25-33.6-36.1-50.9c0.2-0.2,0.4-0.4,0.6-0.6
		c84.7,21.5,168.4,23.8,249,7c1.1-0.2,2.1-0.5,3.2-0.7c-29.4,45.3-64.2,85.9-104.3,121.9C517.1,718.1,509.4,715,500.9,715z
		 M664.2,850.6c-25.5-12.3-76.5-39.5-133.2-84.2c2.8-5,4.4-10.8,4.4-16.9c0-0.8,0-1.6-0.1-2.4c43.4-38,81.1-81,112.6-128.8
		C663.3,688.2,668.7,765.5,664.2,850.6z M678.6,505.3c-4.9,11.3-10,22.4-15.5,33.3c-3.1-1.2-6.3-2-9.8-2.2
		c-25.4-72.8-63.5-137-113.5-191.1c-1.2-1.3-2.5-2.7-3.8-4c2.3-2.8,4.2-5.9,5.6-9.3c55.4,2.5,109.4,12.4,162,29.7
		c2.1,8.6,7.4,16,14.6,20.7C709.5,421.4,696.8,463,678.6,505.3z M729.6,319.9c-9.2,2.1-17.1,7.8-21.9,15.7
		c-52.7-17-106.7-27-161.7-30c52.7-44.9,116.1-85.1,190.2-120.6C737.5,210.3,738.1,259.1,729.6,319.9z"/>
	<path class="st1" d="M664.2,850.6c-25.5-12.3-76.5-39.5-133.2-84.2c2.8-5,4.4-10.8,4.4-16.9c0-0.8,0-1.6-0.1-2.4
		c43.4-38,81.1-81,112.6-128.8C663.3,688.2,668.7,765.5,664.2,850.6z"/>
	<path class="st2" d="M627.4,601.3c-29.4,45.3-64.2,85.9-104.3,121.9c-6-5-13.7-8.1-22.2-8.1c-7.9,0-15.3,2.7-21.1,7.2
		c-23.5-22.2-46.9-47.4-69.1-75.8c-13-16.6-25-33.6-36.1-50.9c0.2-0.2,0.4-0.4,0.6-0.6c84.7,21.5,168.4,23.8,249,7
		C625.3,601.7,626.3,601.5,627.4,601.3z"/>
	<path class="st3" d="M317.5,548.5c-62.4-22.6-125.9-55.8-190.7-99.5c21-13.9,62.6-39,119.1-62.4c5.1,5.6,11.9,9.5,19.6,10.8
		C276.6,450.2,294,500.7,317.5,548.5z"/>
	<path class="st4" d="M477.6,332.4c-57.8,60.4-99.9,128.9-125.2,204c-0.6,0-1.2-0.1-1.8-0.1c-3.1,0-6.1,0.4-8.9,1.2
		c-23.1-46.3-40-94.8-50.7-145.7c8.7-6,14.5-15.9,14.9-27.2c38.1-12.2,80.5-22.4,126.3-28.1C447.4,334.6,462.5,333.2,477.6,332.4z"
		/>
	<path class="st5" d="M616.1,570.8c0,1.4,0.1,2.7,0.2,4.1c-75.4,15.4-152.4,13.5-231.3-5.8c-0.4-7.4-3-14.1-7.3-19.6
		c24.1-73.4,64-139.3,119.8-198c3.5,1.3,7.3,2.1,11.3,2.2c52.9,54,92.3,117.9,118.4,191.8C620.4,551.7,616.1,560.7,616.1,570.8z"/>
	<path class="st6" d="M718.3,382.5c-8.8,38.9-21.5,80.6-39.7,122.8c-4.9,11.3-10,22.4-15.5,33.3c-3.1-1.2-6.3-2-9.8-2.2
		c-25.4-72.8-63.5-137-113.5-191.1c-1.2-1.3-2.5-2.7-3.8-4c2.3-2.8,4.2-5.9,5.6-9.3c55.4,2.5,109.4,12.4,162,29.7
		C705.7,370.4,711.1,377.8,718.3,382.5z"/>
	<path class="st7" d="M729.6,319.9c-9.2,2.1-17.1,7.8-21.9,15.7c-52.7-17-106.7-27-161.7-30c52.7-44.9,116.1-85.1,190.2-120.6
		C737.5,210.3,738.1,259.1,729.6,319.9z"/>
</g>
<g id="Layer_3">
</g>
</svg>
