<svg
  version="1.1"
  id="Layer_1"
  xmlns="http://www.w3.org/2000/svg"
  xmlns:xlink="http://www.w3.org/1999/xlink"
  x="0px"
  y="0px"
  viewBox="0 0 1000 1000"
  style="enable-background:new 0 0 1000 1000;"
  xml:space="preserve"
>
  <style type="text/css">
    .st0 {
      fill: url(#SVGID_1_);
    }
  </style>
  <title>LogoCentered</title>
  <radialGradient id="SVGID_1_" cx="500.8507" cy="493.0188" r="436.8752" gradientUnits="userSpaceOnUse">
    <stop offset="0" style="stop-color:#6D316A" />
    <stop offset="1" style="stop-color:#C24B82" />
  </radialGradient>
  <path
    class="st0"
    d="M11.3,593.9c-6.2,50.8,31.5,101.4,106.1,142.7c66.8,36.9,157.6,63.8,255.6,75.7c95,11.6,194.9,7.6,271.7-14
	c59.4,65.2,124.6,101,180.7,77.1c103.5-44.1,81.6-250.6,8.3-422.6c-38.7-90.8-89.9-170.6-143.9-224.4c-2.6-2.5-5.1-5-7.7-7.5
	c22.2-78.3,18.2-146.3-27.8-180.9c-90-67.6-257.8,54.7-370,204.1C229.2,317.5,184.1,402,163.1,477C79.6,496.4,18.5,534.5,11.3,593.9
	z M663.1,730.3c-32.4-41.5-65.5-96.4-94.6-164.4c-0.6-1.4-1.2-2.8-1.8-4.3c101.4,35.4,156.1,84.8,152,118
	C716.7,697.3,697.1,715.6,663.1,730.3z M780.1,475.7c79.5,186.5,66.7,327.2,22.5,346.1c-16.5,7.1-42.5-0.9-72.5-23.5
	c-8.5-6.4-17.2-13.9-26.2-22.6c41.1-21.3,68.1-50.7,72.8-89c5.3-43.5-20.2-82.8-64.4-115.9c-34.7-26-80.7-48.2-132.2-65.6
	c-12.6-4.2-25.7-8.2-38.8-11.9c-1.2-3.6-2.4-7.3-3.4-11c8-9.9,15.9-19.9,23.5-30c40.2-53.5,75.1-112.9,99.1-170.2
	C705.1,330.2,747.2,398.3,780.1,475.7z M519.9,410.3c-20-105.4-4.5-177.5,26.2-190.6c16.5-7.1,41,0.6,68.6,20.7
	C596.2,290.4,565.4,348.6,519.9,410.3z M619.4,86.6c16.9,12.7,22.3,47,12.5,95.3c-39.5-23.7-76.9-29.4-108.7-15.9
	c-80,34.1-85.1,165-49.5,301.8c-2.5,2.8-4.9,5.6-7.4,8.2c-17-3.2-34.3-5.8-51.4-7.9c-63.1-7.6-128.4-8.6-187.6-1.9
	c18.6-54,52.1-118.6,103.7-187.2C452.7,117.1,581,57.8,619.4,86.6z M415.8,527c-86,78.1-161.5,103.8-189.5,82.8
	c-15.5-11.6-21.3-41.3-14.7-83c53.2-8.3,119.7-10,196.3-0.7C410.6,526.3,413.2,526.7,415.8,527z M191.3,656.4
	c71.6,53.8,192.3-12.6,295.2-117.1c3.4,0.7,6.6,1.4,9.9,2.2c5.7,15.9,11.9,31.7,18.5,47.2c24.3,57,55.2,112.6,89.5,159.8
	c-57.2,12.5-133.6,16.9-224.3,5.9c-90.8-11-174.1-35.4-234.5-68.8c-12.9-7.1-24.4-14.6-34.3-22c-29.1-21.8-44.5-44.2-42.2-62.7
	c0.7-5.8,3.3-11.6,7.7-17.5c12-15.9,37.5-31.3,74.3-42.9C147.2,590.4,158.6,631.8,191.3,656.4z"
  />
</svg>
