<svg xmlns="http://www.w3.org/2000/svg" width="71.278" height="29.006" viewBox="0 0 71.278 29.006">
  <g id="Group_1613" data-name="Group 1613" transform="translate(-735.882 -1347.48)">
    <text id="network" transform="translate(736.664 1373.486)" fill="#fff" font-size="11" font-family="SegoeUI, Segoe UI"><tspan x="0" y="0">network</tspan></text>
    <path id="Path_1071" data-name="Path 1071" d="M737.5,1352v2.046h-1.618v2.826H737.5v7.485h3.548v-7.485h2.69v-2.826h-2.69v-2.086c0-1.15.429-1.559,1.54-1.559a4.241,4.241,0,0,1,1.286.273v-2.846a6.214,6.214,0,0,0-2.125-.351C738.923,1347.481,737.5,1349,737.5,1352Z" fill="#fff"/>
    <path id="Path_1072" data-name="Path 1072" d="M782.622,1380.494c0,1.365-.585,1.929-1.676,1.929s-1.7-.565-1.7-1.929v-5.458H775.7v5.633c0,3,2.241,4.678,5.243,4.678s5.224-1.676,5.224-4.678v-5.633h-3.548Z" transform="translate(-30.328 -20.987)" fill="#fff"/>
    <path id="Path_1073" data-name="Path 1073" d="M826.48,1380.167c0,3.007,2.65,5.138,5.667,5.183.035,0,.066,0,.1,0a8.449,8.449,0,0,0,2.692-.41v-2.982a7.812,7.812,0,0,1-1.044.312,6.785,6.785,0,0,1-1.511.154,2.13,2.13,0,0,1-2.239-2.261c.018-1.461.74-2.2,2.1-2.2a7.129,7.129,0,0,1,2.692.547v-2.965a7.08,7.08,0,0,0-2.692-.5C829.21,1375.044,826.48,1377.069,826.48,1380.167Z" transform="translate(-69.001 -20.993)" fill="#fff"/>
    <path id="Path_1074" data-name="Path 1074" d="M875.364,1354.049a3.9,3.9,0,0,0-2.982,1.4v-7.972h-3.547v16.88h3.547v-5.477c.2-1.17.877-1.91,1.891-1.91,1.169,0,1.481.468,1.481,1.813v5.574H879.3v-5.574C879.3,1355.765,878.132,1354.049,875.364,1354.049Z" transform="translate(-101.26)" fill="#fff"/>
    <path id="Path_1075" data-name="Path 1075" d="M925.537,1379.129c-1.559-.526-1.871-.662-1.871-1.033,0-.292.215-.429,1.15-.429a5.038,5.038,0,0,1,2.592.7l1.15-2.319a7.172,7.172,0,0,0-3.976-1.014c-2.417,0-4.522.741-4.522,3.08,0,1.676,1.306,2.417,2.768,2.943,1.637.585,2.144.8,2.144,1.228,0,.273-.273.409-1.247.409a7.208,7.208,0,0,1-3.04-.916l-1.072,2.476a8.549,8.549,0,0,0,4.464,1.091c2.534,0,4.5-.663,4.5-3.138C928.577,1380.435,927.33,1379.734,925.537,1379.129Z" transform="translate(-139.932 -20.987)" fill="#fff"/>
    <rect id="Rectangle_3772" data-name="Rectangle 3772" width="3.547" height="10.31" transform="translate(790.282 1354.051)" fill="#fff"/>
    <circle id="Ellipse_85" data-name="Ellipse 85" cx="1.773" cy="1.773" r="1.773" transform="translate(790.282 1349.195)" fill="#fff"/>
    <circle id="Ellipse_86" data-name="Ellipse 86" cx="1.195" cy="1.195" r="1.195" transform="translate(777.638 1373.572) rotate(-67.5)" fill="#fff"/>
    <path id="Path_1076" data-name="Path 1076" d="M993.988,1376.51a3.871,3.871,0,0,0-3.058-1.46,5.055,5.055,0,0,0-5.087,5.1,5.269,5.269,0,0,0,5.087,5.2,3.87,3.87,0,0,0,3.058-1.441v1.441h3.548V1375.05h-3.548Zm-2.162,6.011a2.32,2.32,0,1,1,2.318-2.318A2.318,2.318,0,0,1,991.827,1382.521Z" transform="translate(-190.376 -20.997)" fill="#fff"/>
  </g>
</svg>
