<svg xmlns="http://www.w3.org/2000/svg" width="24.845" height="25.955" viewBox="0 0 24.845 25.955">
  <path id="Path_1077" data-name="Path 1077" d="M1176.314,1000.6c-.751-1.3-2.531-1.828-5.014-1.48a23.448,23.448,0,0,0-13.483,7.859c-2.548-.483-4.711-.174-5.608,1.38-1.654,2.865,2.508,7.33,7.267,10.078a21.3,21.3,0,0,0,7.345,2.734c.105.014.208.029.311.04.86,2.231,2.154,3.759,3.848,3.759,3.308,0,5.093-5.836,5.093-11.33a21.9,21.9,0,0,0-1.263-7.616C1176.431,1004.1,1177.194,1002.127,1176.314,1000.6Zm-17.726,8.3a21.743,21.743,0,0,1,5.125,2.194l.117.068c-3.008.96-5.165.763-5.656-.088C1157.912,1010.626,1158.049,1009.851,1158.589,1008.906Zm1.745,8.05c-5.162-2.98-7.344-6.513-6.639-7.736.263-.46,1.014-.728,2.12-.728a8.2,8.2,0,0,1,1.014.069,3.525,3.525,0,0,0-.14,3.377c.643,1.117,1.937,1.588,3.56,1.588a14.057,14.057,0,0,0,4.265-.791c.372-.123.749-.26,1.123-.406.091.063.186.129.274.2-.014.374-.023.748-.023,1.12a23.936,23.936,0,0,0,.677,5.751A20.168,20.168,0,0,1,1160.334,1016.956Zm7.27-3.06c2.331,2.122,3.24,4.091,2.748,4.942-.263.457-.974.708-1.977.726A20.653,20.653,0,0,1,1167.6,1013.9Zm3.377,9.364c-.623,0-1.354-.711-1.977-2.02a3.481,3.481,0,0,0,2.834-1.545c1.277-2.214-.914-5.379-4.165-7.967.009-.108.017-.217.029-.323.457-.226.908-.469,1.348-.723a24.248,24.248,0,0,0,4.442-3.268,20.528,20.528,0,0,1,.869,6.23C1174.36,1019.6,1172.392,1023.261,1170.981,1023.261Zm-2.991-13.943c.643-3.354,1.963-5.29,2.991-5.29.568,0,1.228.594,1.811,1.691a21.369,21.369,0,0,1-4.6,3.482C1168.124,1009.24,1168.056,1009.277,1167.99,1009.317Zm2.991-7c-2.631,0-4.3,3.691-4.871,7.964-.091.043-.18.083-.271.123-.414-.274-.84-.534-1.268-.783a24.271,24.271,0,0,0-4.925-2.174,20.144,20.144,0,0,1,5.168-4.1,19.493,19.493,0,0,1,6.725-2.522,8.681,8.681,0,0,1,1.194-.089c1.068,0,1.825.254,2.1.728a1.079,1.079,0,0,1,.128.546,4.427,4.427,0,0,1-.988,2.319A3.654,3.654,0,0,0,1170.981,1002.313Z" transform="translate(-1151.84 -999.02)" fill="#fff"/>
</svg>
